<?xml version="1.0" encoding="utf-8"?>
<!-- Generator: Adobe Illustrator 16.0.0, SVG Export Plug-In . SVG Version: 6.00 Build 0)  -->
<!DOCTYPE svg PUBLIC "-//W3C//DTD SVG 1.1//EN" "http://www.w3.org/Graphics/SVG/1.1/DTD/svg11.dtd">
<svg version="1.1" id="Layer_1" xmlns="http://www.w3.org/2000/svg" xmlns:xlink="http://www.w3.org/1999/xlink" x="0px" y="0px"
	 width="612px" height="792px" viewBox="0 0 612 792" enable-background="new 0 0 612 792" xml:space="preserve">
<g id="NXWl5W.tif">
	<g>
		<g>
			<path d="M175,184c9.333,0,18.667,0,28,0c2.396,0.514,4.78,1.084,7.188,1.532c22.521,4.186,42.465,14.129,60.609,27.743
				c12.603,9.457,24.759,19.509,37.386,29.509c0.561-0.518,1.643-1.527,2.736-2.525c22.583-20.609,46.291-39.595,75.659-49.786
				c8.231-2.856,16.935-4.353,25.421-6.474c9.333,0,18.667,0,28,0c7.632,1.344,15.355,2.301,22.879,4.094
				c46.484,11.08,76.735,39.131,88.079,86.025c2.751,11.368,3.417,23.24,5.042,34.881c0,2.333,0,4.667,0,7
				c-0.312,2.11-0.528,4.24-0.95,6.328c-2.165,10.715-3.36,21.757-6.77,32.064c-11.04,33.38-32.238,60.316-57.017,84.402
				c-56.252,54.678-112.948,108.898-169.471,163.298c-10.113,9.733-18.527,9.751-28.613,0.022
				c-44.715-43.129-89.526-86.161-134.067-129.471c-19.084-18.556-38.287-37.072-56.177-56.752
				c-18.773-20.651-32.314-44.727-39.225-72.054C61.649,335.684,60.544,327.286,59,319c0-4.333,0-8.667,0-13
				c0.659-5.418,1.354-10.833,1.972-16.255c6.021-52.831,39.857-90.315,92.112-101.845C160.324,186.302,167.691,185.286,175,184z"/>
			<path fill-rule="evenodd" clip-rule="evenodd" fill="#FFFFFF" d="M59,319c1.544,8.286,2.649,16.684,4.711,24.838
				c6.911,27.327,20.452,51.403,39.225,72.054c17.89,19.68,37.092,38.196,56.177,56.752c44.541,43.31,89.352,86.342,134.067,129.471
				c10.086,9.729,18.5,9.711,28.613-0.022c56.522-54.399,113.219-108.62,169.471-163.298c24.778-24.086,45.977-51.022,57.017-84.402
				c3.409-10.308,4.604-21.35,6.77-32.064c0.422-2.088,0.639-4.218,0.95-6.328c0,98,0,196,0,294c-165.667,0-331.333,0-497,0
				C59,513,59,416,59,319z"/>
			<path fill-rule="evenodd" clip-rule="evenodd" fill="#FFFFFF" d="M412,184c-8.486,2.121-17.189,3.617-25.421,6.474
				c-29.368,10.19-53.076,29.177-75.659,49.786c-1.094,0.998-2.176,2.007-2.736,2.525c-12.626-10-24.783-20.053-37.386-29.509
				c-18.144-13.614-38.088-23.558-60.609-27.743c-2.408-0.447-4.793-1.018-7.188-1.532C272.667,184,342.334,184,412,184z"/>
			<path fill-rule="evenodd" clip-rule="evenodd" fill="#FFFFFF" d="M556,309c-1.625-11.641-2.291-23.513-5.042-34.881
				c-11.344-46.894-41.595-74.945-88.079-86.025c-7.523-1.793-15.247-2.75-22.879-4.094c38.667,0,77.333,0,116,0
				C556,225.667,556,267.333,556,309z"/>
			<path fill-rule="evenodd" clip-rule="evenodd" fill="#FFFFFF" d="M175,184c-7.309,1.286-14.676,2.302-21.916,3.9
				c-52.255,11.53-86.091,49.014-92.112,101.845C60.354,295.167,59.659,300.582,59,306c0-40.667,0-81.333,0-122
				C97.667,184,136.333,184,175,184z"/>
		</g>
	</g>
</g>
</svg>
